<svg width="47" height="16" viewBox="0 0 47 16" fill="none" xmlns="http://www.w3.org/2000/svg">
<path d="M10.0566 11.7451H3.92432L2.32861 15.2241H0L7.08789 0L13.9253 15.2241H11.5596L10.0566 11.7451ZM9.17529 9.71338L7.05078 4.84277L4.82422 9.71338H9.17529Z" fill="url(#paint0_linear_4_55)"/>
<path d="M19.7867 0.899902V15.2241H17.6251V0.899902H19.7867Z" fill="url(#paint1_linear_4_55)"/>
<path d="M45.3654 7.375H26.6731C26.0305 7.375 25.5048 7.88125 25.5048 8.5C25.5048 9.11875 26.0305 9.625 26.6731 9.625H45.3654C46.0079 9.625 46.5337 9.11875 46.5337 8.5C46.5337 7.88125 46.0079 7.375 45.3654 7.375ZM26.6731 15.25H38.3558C38.9983 15.25 39.524 14.7438 39.524 14.125C39.524 13.5062 38.9983 13 38.3558 13H26.6731C26.0305 13 25.5048 13.5062 25.5048 14.125C25.5048 14.7438 26.0305 15.25 26.6731 15.25ZM45.3654 1.75H26.6731C26.0305 1.75 25.5048 2.25625 25.5048 2.875V2.88625C25.5048 3.505 26.0305 4.01125 26.6731 4.01125H45.3654C46.0079 4.01125 46.5337 3.505 46.5337 2.88625V2.875C46.5337 2.25625 46.0079 1.75 45.3654 1.75Z" fill="white"/>
<path d="M10.5156 11.5468L10.3853 11.2451H10.0566H3.92432H3.60356L3.46984 11.5367L2.00786 14.7241H0.784318L7.07971 1.20221L13.1526 14.7241H11.8882L10.5156 11.5468ZM9.17529 10.2134H9.93888L9.63359 9.51347L7.50908 4.64287L7.06149 3.61673L6.59604 4.63489L4.36948 9.5055L4.04588 10.2134H4.82422H9.17529ZM19.2867 1.3999V14.7241H18.1251V1.3999H19.2867ZM26.6731 7.875H45.3654C45.7497 7.875 46.0337 8.17501 46.0337 8.5C46.0337 8.82499 45.7497 9.125 45.3654 9.125H26.6731C26.2887 9.125 26.0048 8.82499 26.0048 8.5C26.0048 8.17501 26.2887 7.875 26.6731 7.875ZM38.3558 14.75H26.6731C26.2887 14.75 26.0048 14.45 26.0048 14.125C26.0048 13.8 26.2887 13.5 26.6731 13.5H38.3558C38.7401 13.5 39.024 13.8 39.024 14.125C39.024 14.45 38.7401 14.75 38.3558 14.75ZM26.6731 2.25H45.3654C45.7497 2.25 46.0337 2.55001 46.0337 2.875V2.88625C46.0337 3.21124 45.7497 3.51125 45.3654 3.51125H26.6731C26.2887 3.51125 26.0048 3.21124 26.0048 2.88625V2.875C26.0048 2.55001 26.2887 2.25 26.6731 2.25Z" stroke="url(#paint2_linear_4_55)"/>
<defs>
<linearGradient id="paint0_linear_4_55" x1="0" y1="-2.0034" x2="99.8235" y2="-2.0034" gradientUnits="userSpaceOnUse">
<stop stop-color="#0052D4"/>
<stop offset="0.455" stop-color="#4364F7"/>
<stop offset="1" stop-color="#6FB1FC"/>
</linearGradient>
<linearGradient id="paint1_linear_4_55" x1="0" y1="-2.0034" x2="99.8235" y2="-2.0034" gradientUnits="userSpaceOnUse">
<stop stop-color="#0052D4"/>
<stop offset="0.455" stop-color="#4364F7"/>
<stop offset="1" stop-color="#6FB1FC"/>
</linearGradient>
<linearGradient id="paint2_linear_4_55" x1="0" y1="0" x2="46.5337" y2="0" gradientUnits="userSpaceOnUse">
<stop stop-color="#0052D4"/>
<stop offset="0.455" stop-color="#4364F7"/>
<stop offset="1" stop-color="#6FB1FC"/>
</linearGradient>
</defs>
</svg>
